<svg width="32" height="32" viewBox="0 0 32 32" fill="none" xmlns="http://www.w3.org/2000/svg">
<path d="M14.3325 1.37216H11.3697C3.96278 1.37216 1 4.33494 1 11.7419V20.6303C1 28.0372 3.96278 31 11.3697 31H20.2581C27.665 31 30.6278 28.0372 30.6278 20.6303V17.6675M20.1248 4.55701C21.1173 8.09753 23.8876 10.8677 27.4429 11.8751M21.7987 2.88319L10.1254 14.5566C9.68096 15.001 9.23654 15.875 9.14766 16.512L8.51066 20.971C8.27363 22.5857 9.41431 23.7116 11.029 23.4894L15.488 22.8524C16.1102 22.7635 16.9842 22.3191 17.4434 21.8746L29.1168 10.2013C31.1315 8.18657 32.0796 5.84597 29.1168 2.88319C26.154 -0.0795952 23.8134 0.868496 21.7987 2.88319Z" stroke="#045830" stroke-width="2" stroke-miterlimit="10" stroke-linecap="round" stroke-linejoin="round"/>
</svg>
