<svg width="30" height="30" viewBox="0 0 30 30" fill="none" xmlns="http://www.w3.org/2000/svg">
<path d="M11.25 7.5C11.25 7.25136 11.1512 7.0129 10.9754 6.83709C10.7996 6.66127 10.5611 6.5625 10.3125 6.5625C10.0639 6.5625 9.8254 6.66127 9.64959 6.83709C9.47377 7.0129 9.375 7.25136 9.375 7.5C9.375 8.99184 9.96763 10.4226 11.0225 11.4775C12.0774 12.5324 13.5082 13.125 15 13.125C16.4918 13.125 17.9226 12.5324 18.9775 11.4775C20.0324 10.4226 20.625 8.99184 20.625 7.5C20.625 7.25136 20.5262 7.0129 20.3504 6.83709C20.1746 6.66127 19.9361 6.5625 19.6875 6.5625C19.4389 6.5625 19.2004 6.66127 19.0246 6.83709C18.8488 7.0129 18.75 7.25136 18.75 7.5C18.75 8.49456 18.3549 9.44839 17.6517 10.1517C16.9484 10.8549 15.9946 11.25 15 11.25C14.0054 11.25 13.0516 10.8549 12.3483 10.1517C11.6451 9.44839 11.25 8.49456 11.25 7.5Z" fill="#131313"/>
<path fill-rule="evenodd" clip-rule="evenodd" d="M4.28702 8.00625C4.39568 6.59318 5.03374 5.2732 6.07362 4.31027C7.11349 3.34733 8.47853 2.81242 9.89577 2.8125H20.1033C21.5205 2.81242 22.8856 3.34733 23.9254 4.31027C24.9653 5.2732 25.6034 6.59318 25.712 8.00625L26.7208 21.1313C26.7802 21.9039 26.6793 22.6805 26.4245 23.4124C26.1696 24.1442 25.7663 24.8155 25.2398 25.3841C24.7133 25.9527 24.075 26.4065 23.3649 26.7168C22.6548 27.0271 21.8882 27.1874 21.1133 27.1875H8.88578C8.11083 27.1874 7.34427 27.0271 6.63417 26.7168C5.92408 26.4065 5.28577 25.9527 4.75927 25.3841C4.23277 24.8155 3.82945 24.1442 3.5746 23.4124C3.31975 22.6805 3.21886 21.9039 3.27827 21.1313L4.28702 8.00625ZM9.89577 4.6875H20.1033C21.048 4.68755 21.958 5.04421 22.6511 5.68615C23.3443 6.3281 23.7696 7.20802 23.842 8.15L24.852 21.275C24.8916 21.7901 24.8244 22.3079 24.6544 22.7958C24.4845 23.2838 24.2156 23.7313 23.8646 24.1104C23.5135 24.4895 23.0879 24.792 22.6145 24.9988C22.141 25.2057 21.6299 25.3125 21.1133 25.3125H8.88578C8.36922 25.3123 7.85827 25.2054 7.38497 24.9984C6.91167 24.7915 6.48623 24.489 6.13532 24.1099C5.78441 23.7309 5.51561 23.2834 5.34575 22.7955C5.1759 22.3077 5.10867 21.79 5.14827 21.275L6.15703 8.15C6.22946 7.20802 6.65477 6.3281 7.34793 5.68615C8.04109 5.04421 8.95102 4.68755 9.89577 4.6875Z" fill="#131313"/>
</svg>
