<svg width="18" height="18" viewBox="0 0 18 18" fill="none" xmlns="http://www.w3.org/2000/svg">
<path d="M0.2999 3.40947C0 4.64946 0 6.36008 0 9C0 12.7497 0 14.6246 0.859423 15.9389C1.13698 16.3634 1.47294 16.7367 1.85497 17.0451C3.03786 18 4.72524 18 8.1 18H9.9C13.2748 18 14.9621 18 16.145 17.0451C16.5271 16.7367 16.863 16.3634 17.1406 15.9389C18 14.6246 18 12.7497 18 9C18 6.35129 18 4.63806 17.6971 3.39709L15.8046 5.49986C14.3356 7.13214 13.1843 8.41132 12.1653 9.2752C11.1222 10.1594 10.1388 10.6789 8.99988 10.6789C7.86097 10.6789 6.87751 10.1594 5.83447 9.2752C4.81544 8.41132 3.66418 7.13213 2.19514 5.49984L0.435469 3.54466L0.2999 3.40947Z" fill="white"/>
<path d="M0.9 2L0.997961 2.09007L1.36428 2.45535L3.11321 4.39861C4.62671 6.08027 5.71482 7.28703 6.65335 8.08267C7.57631 8.8651 8.27482 9.17894 8.99988 9.17894C9.72493 9.17894 10.4234 8.8651 11.3464 8.08267C12.2849 7.28703 13.373 6.08027 14.8865 4.39861L16.9637 2.0907L17.0767 1.96579C16.7991 1.54132 16.5271 1.26331 16.145 0.954915C14.9621 0 13.2748 0 9.9 0H8.1C4.72524 0 3.03786 0 1.85497 0.954915C1.47294 1.26331 1.17756 1.57553 0.9 2Z" fill="white"/>
</svg>
