<svg width="11" height="11" viewBox="0 0 11 11" fill="none" xmlns="http://www.w3.org/2000/svg">
<path d="M10.2917 4.875H6.125V0.708333C6.125 0.593229 6.03177 0.5 5.91667 0.5H5.08333C4.96823 0.5 4.875 0.593229 4.875 0.708333V4.875H0.708333C0.593229 4.875 0.5 4.96823 0.5 5.08333V5.91667C0.5 6.03177 0.593229 6.125 0.708333 6.125H4.875V10.2917C4.875 10.4068 4.96823 10.5 5.08333 10.5H5.91667C6.03177 10.5 6.125 10.4068 6.125 10.2917V6.125H10.2917C10.4068 6.125 10.5 6.03177 10.5 5.91667V5.08333C10.5 4.96823 10.4068 4.875 10.2917 4.875Z" fill="#767676" stroke="#767676"/>
</svg>
