<svg width="30" height="30" viewBox="0 0 30 30" fill="none" xmlns="http://www.w3.org/2000/svg">
<path d="M25.4593 14.3719L15.286 25.6075C15.2323 25.667 15.161 25.7079 15.0825 25.7242C15.004 25.7405 14.9223 25.7315 14.8493 25.6983C14.7763 25.6651 14.7158 25.6096 14.6764 25.5398C14.6371 25.4699 14.621 25.3893 14.6304 25.3097L15.6471 16.6364H11.8882C11.8148 16.6365 11.7429 16.6152 11.6814 16.5752C11.6199 16.5351 11.5714 16.478 11.5418 16.4108C11.5122 16.3437 11.5028 16.2693 11.5148 16.1969C11.5268 16.1245 11.5597 16.0571 11.6093 16.003L22.5704 3.99637C22.8438 3.69749 23.3315 3.9786 23.2104 4.36526L20.2615 13.7397H25.1793C25.5071 13.7397 25.6793 14.1286 25.4593 14.3719Z" fill="#FEA203"/>
<path fill-rule="evenodd" clip-rule="evenodd" d="M18.4543 5.95368C17.9429 5.29272 17.287 4.75755 16.5369 4.38913C15.7867 4.02071 14.9622 3.82881 14.1265 3.82813C12.9446 3.82787 11.7943 4.21054 10.8481 4.91883C9.90189 5.62711 9.21059 6.62289 8.87776 7.75701C8.54493 8.89114 8.58848 10.1026 9.00189 11.2099C9.4153 12.3172 10.1763 13.2607 11.171 13.8992L12.2487 12.7226C11.6341 12.3865 11.1213 11.891 10.7643 11.2882C10.4072 10.6854 10.2192 9.99759 10.2199 9.29701C10.2197 8.45866 10.4893 7.64249 10.9888 6.96919C11.4883 6.29589 12.1912 5.80119 12.9936 5.55823C13.796 5.31527 14.6552 5.33696 15.4443 5.62007C16.2334 5.90319 16.9105 6.43271 17.3754 7.13035L18.4543 5.95368ZM22.9343 20.7226L21.861 21.9037C22.4088 22.6815 22.7187 23.5848 22.7187 24.5315V26.4848C22.7187 26.6921 22.8011 26.8909 22.9477 27.0375C23.0943 27.1841 23.2931 27.2665 23.5004 27.2665C23.7077 27.2665 23.9065 27.1841 24.0531 27.0375C24.1997 26.8909 24.2821 26.6921 24.2821 26.4848V24.5315C24.2821 23.0959 23.7799 21.7892 22.9343 20.7226ZM13.6788 19.4537H11.4476C8.07875 19.4537 5.53208 21.8215 5.53208 24.5315V26.4848C5.53208 26.6921 5.44973 26.8909 5.30314 27.0375C5.15655 27.1841 4.95773 27.2665 4.75042 27.2665C4.54311 27.2665 4.34429 27.1841 4.19769 27.0375C4.0511 26.8909 3.96875 26.6921 3.96875 26.4848V24.5315C3.96875 20.7692 7.41875 17.8915 11.4465 17.8915H13.8765L13.6788 19.4537Z" fill="black" stroke="black" stroke-width="0.814815"/>
</svg>
