<svg width="43" height="42" viewBox="0 0 43 42" fill="none" xmlns="http://www.w3.org/2000/svg">
<path d="M3.65 6.01649C-0.404021 11.3925 0.00417018 18.2962 0.01706 18.375L0.0170594 39.375C0.0170594 40.0712 0.243408 40.7389 0.646313 41.2311C1.04921 41.7234 1.59566 42 2.16545 42L15.0558 42C17.4255 42 19.3526 39.6454 19.3526 36.75L19.3526 18.375C19.3526 17.6788 19.1263 17.0111 18.7234 16.5188C18.3205 16.0266 17.774 15.75 17.2042 15.75L10.5915 15.75C10.6369 14.4522 10.9542 13.1904 11.5131 12.0855C12.6045 9.98287 14.6605 8.54699 17.6275 7.82249L19.3526 7.40249L19.3526 -5.94402e-06L17.2042 -6.48404e-06C11.2252 -7.98692e-06 6.6642 2.02387 3.65 6.01649ZM27.2974 6.01649C23.2412 11.3925 23.6516 18.2962 23.6644 18.375L23.6644 39.375C23.6644 40.0712 23.8908 40.7389 24.2937 41.2312C24.6966 41.7234 25.243 42 25.8128 42L38.7032 42C41.0729 42 43 39.6454 43 36.75L43 18.375C43 17.6788 42.7737 17.0111 42.3708 16.5188C41.9678 16.0266 41.4214 15.75 40.8516 15.75L34.2388 15.75C34.2842 14.4522 34.6016 13.1904 35.1605 12.0855C36.2519 9.98287 38.3079 8.547 41.2748 7.8225L43 7.4025L43 0L40.8516 -5.40022e-07C34.8726 -2.0429e-06 30.3116 2.02387 27.2974 6.01649Z" fill="#121212" fill-opacity="0.5"/>
</svg>
