<svg width="33" height="33" viewBox="0 0 33 33" fill="none" xmlns="http://www.w3.org/2000/svg">
<path d="M12 16.4987L14.9959 19.4985L21 13.499M14.6126 2.16369C15.6472 1.27877 17.3416 1.27877 18.3912 2.16369L20.7603 4.20352C21.2101 4.59349 22.0498 4.90847 22.6496 4.90847H25.1986C26.788 4.90847 28.0925 6.21336 28.0925 7.80322V10.353C28.0925 10.938 28.4074 11.7929 28.7973 12.2429L30.8365 14.6127C31.7212 15.6476 31.7212 17.3424 30.8365 18.3923L28.7973 20.7621C28.4074 21.2121 28.0925 22.052 28.0925 22.652V25.2018C28.0925 26.7916 26.788 28.0965 25.1986 28.0965H22.6496C22.0648 28.0965 21.2101 28.4115 20.7603 28.8015L18.3912 30.8413C17.3566 31.7262 15.6622 31.7262 14.6126 30.8413L12.2435 28.8015C11.7936 28.4115 10.954 28.0965 10.3542 28.0965H7.76015C6.17075 28.0965 4.86624 26.7916 4.86624 25.2018V22.637C4.86624 22.052 4.55136 21.2121 4.1765 20.7621L2.15226 18.3773C1.28258 17.3424 1.28258 15.6626 2.15226 14.6277L4.1765 12.2429C4.55136 11.7929 4.86624 10.953 4.86624 10.368V7.78823C4.86624 6.19836 6.17075 4.89347 7.76015 4.89347H10.3542C10.939 4.89347 11.7936 4.57849 12.2435 4.18853L14.6126 2.16369Z" stroke="#045830" stroke-width="3" stroke-linecap="round" stroke-linejoin="round"/>
</svg>
