<svg width="88" height="37" viewBox="0 0 88 37" fill="none" xmlns="http://www.w3.org/2000/svg">
<path d="M69.5 36C79.1653 36 87 28.1647 87 18.4999C87 8.835 79.1653 1 69.5 1C59.8347 1 52 8.835 52 18.4999C52 28.1647 59.8347 36 69.5 36Z" fill="#FFFBF2" stroke="#24CD63" stroke-width="2"/>
<path d="M76.9501 14.0404C75.1093 12.9896 72.7554 13.6141 71.6916 15.4344L69.0108 20.0281C68.2337 21.3546 69.2332 21.8181 70.3465 22.4785L72.9268 23.9513C73.8017 24.4497 74.9177 24.1538 75.4214 23.2908L78.1773 18.5701C79.1044 16.9837 78.5538 14.9564 76.9501 14.0404Z" fill="#EA4335"/>
<path d="M73.9159 15.9413L71.3355 14.4687C69.9114 13.6867 69.1049 13.6348 68.5194 14.5541L64.7145 21.0718C63.6521 22.891 64.2845 25.2177 66.1239 26.2662C67.7276 27.182 69.7788 26.6386 70.7045 25.0522L74.5831 18.4086C75.0895 17.5446 74.7894 16.4398 73.9159 15.9413Z" fill="#FBBC04"/>
<path d="M72.6001 11.556C70.5958 10.4117 68.0329 11.0902 66.8754 13.0725L63.4255 18.9826C62.9151 19.8546 63.2178 20.9706 64.0994 21.4736L66.1291 22.6324C67.1313 23.205 68.4134 22.8653 68.9922 21.8741L72.9337 15.1225C73.7509 13.7241 75.5582 13.2447 76.973 14.0524L72.6001 11.556Z" fill="#34A853"/>
<path d="M67.3657 14.7634L65.4071 13.6474C64.5335 13.1501 63.4162 13.4448 62.9124 14.3066L60.5625 18.3231C59.405 20.3 60.0909 22.8291 62.0965 23.97L66.1814 26.2965C64.7881 25.374 64.3446 23.5256 65.1967 22.0696L65.8063 21.0301L68.0343 17.2217C68.538 16.3622 68.2379 15.2606 67.3657 14.7634Z" fill="#4285F4"/>
<path d="M44.5007 36C54.1657 36 62 28.1647 62 18.4999C62 8.835 54.1657 1 44.5007 1C34.8357 1 27 8.835 27 18.4999C27 28.1647 34.8357 36 44.5007 36Z" fill="#F7F4FA" stroke="#24CD63" stroke-width="2"/>
<path d="M49.2664 15.9423C49.2664 15.5242 48.9034 15.1658 48.4814 15.1658H47.0318L43.7105 11.4032C43.4077 11.0448 42.9254 10.9253 42.4418 11.0448L41.295 11.4032C41.1128 11.4628 41.0525 11.7018 41.1731 11.8213L44.7971 15.2254H39.3014C39.1206 15.2254 39 15.3449 39 15.5242V16.1213C39 16.5394 39.3617 16.8978 39.7851 16.8978H40.6305V19.7645C40.6305 21.9146 41.7773 23.1688 43.7105 23.1688C44.3134 23.1688 44.7971 23.1091 45.4013 22.8701V24.7813C45.4013 25.3188 45.8233 25.7369 46.3672 25.7369H47.2126C47.3935 25.7369 47.5757 25.5577 47.5757 25.3785V16.838H48.9637C49.1459 16.838 49.2664 16.7186 49.2664 16.5394V15.9423ZM45.4013 21.0784C45.0382 21.2576 44.5559 21.3173 44.1928 21.3173C43.2269 21.3173 42.7432 20.8396 42.7432 19.7645V16.8978H45.4013V21.0784Z" fill="#5F259F"/>
<path d="M18.5007 36C28.1657 36 36 28.1647 36 18.4999C36 8.835 28.1657 1 18.5007 1C8.83573 1 1 8.835 1 18.4999C1 28.1647 8.83573 36 18.5007 36Z" fill="#F2FAFD" stroke="#24CD63" stroke-width="2"/>
<path fill-rule="evenodd" clip-rule="evenodd" d="M7.0268 16.408C7.0268 16.2485 7.13531 16.1666 7.27062 16.1666H9.63797C10.3654 16.2485 10.8705 16.6149 10.9228 17.576V18.8778C10.9228 19.0718 10.9094 19.2356 10.8531 19.4209C10.6655 20.046 10.2127 20.3563 9.53747 20.4036H8.52195C8.52195 20.9339 8.52195 21.464 8.52195 21.9943C8.52195 22.1149 8.42147 22.1752 8.2942 22.1752C7.93783 22.1752 7.58414 22.1752 7.22643 22.1752C7.09647 22.1752 7 22.102 7 21.9597L7.0268 16.408ZM8.52999 17.645H9.16234C9.30168 17.645 9.41958 17.7614 9.41958 17.8994V18.6493C9.41958 18.7916 9.30168 18.9036 9.16234 18.9036H8.52999V17.645Z" fill="#253081"/>
<path fill-rule="evenodd" clip-rule="evenodd" d="M12.0868 16.1774H13.7441C14.7114 16.2334 15.2393 16.7377 15.2219 17.7808V21.643C15.2219 21.9448 14.9164 22.1688 14.6551 22.1688H12.4848C11.8256 22.1688 11.3902 21.6602 11.2817 21.1645C11.1772 20.6861 11.2549 20.1085 11.2549 19.6213C11.2549 18.867 11.7613 18.1213 12.6013 18.1213H13.4869C13.7441 18.1085 13.7307 17.5524 13.4869 17.5739H12.1043C11.9649 17.5739 11.8658 17.5007 11.8524 17.3584C11.8524 17.0223 11.8524 16.686 11.8524 16.3454C11.8564 16.2162 11.9649 16.1774 12.0868 16.1774ZM13.0032 19.5179H13.5083C13.6262 19.5179 13.7267 19.6128 13.7267 19.7334V20.6041C13.7267 20.7206 13.6302 20.8196 13.5083 20.8196H13.0032C12.8853 20.8196 12.7849 20.7249 12.7849 20.6041V19.7334C12.7849 19.6128 12.8813 19.5179 13.0032 19.5179Z" fill="#253081"/>
<path fill-rule="evenodd" clip-rule="evenodd" d="M15.7309 16.4484V18.8881C15.7912 19.6554 16.4852 20.2243 17.2395 20.2243H17.9362C18.2242 20.2243 18.2068 20.7028 17.9362 20.7028H16.4236C16.2588 20.7028 16.2012 20.789 16.2012 20.9313V22.0046C16.2012 22.1123 16.2883 22.1942 16.4062 22.1942H17.8062C18.9731 22.1942 19.6403 21.6381 19.6403 20.3967V16.3537C19.6403 16.22 19.5572 16.1682 19.4755 16.1682H18.3019C18.1934 16.1682 18.1331 16.2846 18.1331 16.3708V18.5907C18.1331 18.6855 18.0808 18.7415 17.9924 18.7415H17.4391C17.3132 18.7415 17.2435 18.6726 17.2435 18.5519V16.4097C17.2435 16.2674 17.1872 16.164 17.0251 16.164C16.65 16.164 16.2709 16.164 15.8971 16.164C15.7658 16.164 15.7309 16.2889 15.7309 16.4484Z" fill="#253081"/>
<path fill-rule="evenodd" clip-rule="evenodd" d="M20.2338 17.4515V16.3954C20.2338 16.2834 20.3289 16.1885 20.4428 16.1885H20.7C21.3619 16.0506 21.5186 15.667 21.9246 15.236C22.1724 14.9687 22.3908 14.8997 22.5516 15.18V16.1842H23.1585C23.271 16.1842 23.3675 16.2791 23.3675 16.3912V17.4472C23.3675 17.5593 23.271 17.6542 23.1585 17.6542H22.5516V21.9775C22.5516 22.0895 22.4604 22.1843 22.3425 22.1843H21.2748C21.1609 22.1843 21.0658 22.0938 21.0658 21.9775V17.6584H20.4428C20.3289 17.6584 20.2338 17.5636 20.2338 17.4515Z" fill="#009FE3"/>
<path fill-rule="evenodd" clip-rule="evenodd" d="M27.7912 21.9147C27.7912 22.057 27.6734 22.169 27.53 22.169H26.5319C26.3886 22.169 26.2706 22.0527 26.2706 21.9147V17.9449C26.2787 17.5139 25.4025 17.4491 25.4025 17.9449V21.9147C25.4025 22.057 25.2859 22.169 25.1412 22.169H24.1431C23.9998 22.169 23.8819 22.0527 23.8819 21.9147V16.4103C23.8819 16.2681 23.9998 16.1517 24.1431 16.1517H25.1412C25.2859 16.1517 25.4025 16.2681 25.4025 16.4103V16.488C25.9866 15.9362 26.9981 16.0225 27.5394 16.5957C28.5549 15.4448 30.2885 16.4707 30.2108 17.7337C30.2108 19.1259 30.1974 20.5095 30.1974 21.9147C30.1974 22.057 30.0795 22.169 29.9362 22.169H28.9381C28.7947 22.169 28.6768 22.0527 28.6768 21.9147C28.6768 20.5828 28.6768 19.281 28.6768 17.9708C28.6192 17.419 27.7792 17.5482 27.7792 17.9708C27.7832 19.281 27.7912 20.5914 27.7912 21.9147Z" fill="#009FE3"/>
</svg>
