<svg width="35" height="35" viewBox="0 0 35 35" fill="none" xmlns="http://www.w3.org/2000/svg">
<path d="M17.5 35C27.165 35 35 27.1651 35 17.5C35 7.83493 27.165 0 17.5 0C7.83497 0 0 7.83493 0 17.5C0 27.1651 7.83497 35 17.5 35Z" fill="#FBF5FC"/>
<path d="M26.3032 12H7.89742C7.40175 12 7 12.4133 7 12.9221V21.2817C7 21.7906 7.40175 22.2025 7.89742 22.2025H26.3032C26.7988 22.2025 27.2007 21.7906 27.2007 21.2817V12.9221C27.2007 12.4133 26.7988 12 26.3032 12Z" fill="#B23EBF"/>
<path d="M17.1001 20.9277C19.1919 20.9277 20.8877 19.2154 20.8877 17.102C20.8877 14.9885 19.1919 13.2762 17.1001 13.2762C15.0083 13.2762 13.3125 14.9885 13.3125 17.102C13.3125 19.2154 15.0083 20.9277 17.1001 20.9277Z" fill="white"/>
<path d="M9.77766 18.1224C10.3354 18.1224 10.7876 17.6647 10.7876 17.102C10.7876 16.538 10.3354 16.0816 9.77766 16.0816C9.21983 16.0816 8.76758 16.538 8.76758 17.102C8.76758 17.6647 9.21983 18.1224 9.77766 18.1224Z" fill="white"/>
<path d="M24.4232 18.1224C24.981 18.1224 25.4331 17.6647 25.4331 17.102C25.4331 16.538 24.981 16.0816 24.4232 16.0816C23.8653 16.0816 23.4131 16.538 23.4131 17.102C23.4131 17.6647 23.8653 18.1224 24.4232 18.1224Z" fill="white"/>
<path d="M16.9994 19.1427L16.0903 17.5408V17.1638H16.3933C16.5717 17.1638 16.7216 17.1248 16.8428 17.0467C16.964 16.9646 17.0415 16.8529 17.0751 16.7088H16.0903V16.3319H17.0701C17.0398 16.2027 16.9775 16.095 16.8832 16.0102C16.7889 15.9227 16.6576 15.8783 16.4893 15.8783H16.0903V15.5H18.368V15.8783H17.5751C17.6929 16.0075 17.767 16.1583 17.7973 16.3319H18.368V16.7088H17.8074C17.7737 16.9606 17.6778 17.1585 17.5195 17.3012C17.3613 17.4412 17.1576 17.5354 16.9085 17.5865L17.8983 19.1427H16.9994Z" fill="#B23EBF"/>
</svg>
