<svg width="87" height="37" viewBox="0 0 87 37" fill="none" xmlns="http://www.w3.org/2000/svg">
<path d="M68.5 36C78.165 36 86 28.1647 86 18.4999C86 8.835 78.165 1 68.5 1C58.835 1 51 8.835 51 18.4999C51 28.1647 58.835 36 68.5 36Z" fill="#E6F4ED" stroke="black" stroke-width="2"/>
<path d="M79.5316 15.5153L81 18.5008L77.9146 21.4862L79.5316 15.5153Z" fill="#008C44"/>
<path d="M78.5159 15.5153L79.9796 18.5008L76.8988 21.4862L78.5159 15.5153Z" fill="#F47920"/>
<path d="M55 20.3988L56.4639 15H58.8015C59.5311 15 60.0222 15.12 60.2699 15.3645C60.5177 15.6045 60.5627 16.0014 60.414 16.5597C60.324 16.8873 60.1887 17.1642 59.9997 17.3811C59.8149 17.598 59.5673 17.7686 59.2655 17.8978C59.5222 17.9624 59.6844 18.087 59.7564 18.2761C59.8285 18.4655 59.8194 18.7376 59.7339 19.0975L59.5582 19.8497V19.8681C59.5086 20.0805 59.5222 20.1912 59.6078 20.2005L59.5537 20.3988H57.9683C57.9728 20.2696 57.9817 20.1588 57.9953 20.0619C58.0088 19.965 58.0222 19.8867 58.0358 19.8359L58.18 19.3006C58.252 19.0192 58.261 18.8254 58.1889 18.7099C58.1213 18.5946 57.9637 18.5393 57.7161 18.5393H57.0539L56.5449 20.3988H55ZM57.3827 17.321H58.0943C58.3421 17.321 58.5268 17.2842 58.6393 17.2104C58.7521 17.1365 58.8376 17.0073 58.8871 16.8181C58.9367 16.6289 58.9276 16.495 58.851 16.4212C58.7789 16.3474 58.6034 16.3105 58.3285 16.3105H57.6575L57.3827 17.321Z" fill="#1B3281"/>
<path d="M64.7517 16.4143L63.6752 20.3965H62.3644L62.5267 19.815C62.2969 20.0457 62.0581 20.2211 61.8239 20.3364C61.5897 20.4517 61.3375 20.5072 61.0763 20.5072C60.86 20.5072 60.6754 20.4657 60.5223 20.3872C60.3691 20.3087 60.2565 20.1842 60.1799 20.0273C60.1124 19.8889 60.0853 19.7135 60.0944 19.5104C60.1078 19.3075 60.1754 18.966 60.3061 18.4861L60.8691 16.4143H62.3014L61.7429 18.4722C61.6618 18.7722 61.6438 18.9844 61.6798 19.0997C61.7204 19.2152 61.833 19.2751 62.0131 19.2751C62.1934 19.2751 62.3464 19.2059 62.4726 19.0722C62.5986 18.9383 62.6978 18.7353 62.7698 18.4677L63.3239 16.4143H64.7517Z" fill="#1B3281"/>
<path d="M64.2349 20.3988L65.6942 15H67.703C68.1444 15 68.4913 15.0277 68.7344 15.0878C68.9777 15.143 69.1714 15.2353 69.3111 15.3645C69.4912 15.5353 69.5994 15.7429 69.6444 15.9921C69.6849 16.2413 69.6624 16.5367 69.5678 16.878C69.4056 17.4825 69.1173 17.944 68.7075 18.267C68.2976 18.5854 67.7887 18.7469 67.185 18.7469H66.2437L65.7977 20.3988H64.2349ZM66.604 17.4272H67.1084C67.4374 17.4272 67.667 17.3856 67.7976 17.3073C67.9283 17.2241 68.0184 17.0811 68.0768 16.878C68.1355 16.6704 68.1175 16.5274 68.0318 16.4443C67.9508 16.3659 67.7391 16.3243 67.4058 16.3243H66.9013L66.604 17.4272Z" fill="#1B3281"/>
<path d="M71.2572 20.3987L71.2708 20.0204C71.0411 20.1958 70.8069 20.3295 70.5682 20.4173C70.3339 20.5003 70.0861 20.5464 69.816 20.5464C69.4106 20.5464 69.1268 20.4357 68.9646 20.2142C68.8025 19.9973 68.7755 19.6789 68.888 19.2775C68.9917 18.8806 69.1809 18.5899 69.451 18.4054C69.7214 18.2162 70.1718 18.0823 70.8024 17.9947C70.8834 17.9809 70.9915 17.9716 71.1221 17.9532C71.5905 17.8978 71.8518 17.7686 71.9059 17.561C71.9375 17.4456 71.9193 17.3625 71.8472 17.3117C71.7797 17.2565 71.6581 17.2334 71.4779 17.2334C71.3293 17.2334 71.2078 17.2656 71.1086 17.3303C71.0095 17.3949 70.9375 17.4918 70.8879 17.6302H69.4915C69.6177 17.1826 69.8744 16.8411 70.2619 16.615C70.6491 16.3843 71.1537 16.2735 71.7842 16.2735C72.0815 16.2735 72.3472 16.3012 72.5815 16.3659C72.8157 16.4258 72.9869 16.5089 73.0994 16.6103C73.2345 16.7396 73.3157 16.8826 73.3427 17.0441C73.3698 17.2057 73.3382 17.4317 73.2572 17.7317L72.6581 19.9512C72.6401 20.025 72.6356 20.0896 72.6446 20.1496C72.6581 20.2049 72.6806 20.2557 72.7256 20.288L72.694 20.3987H71.2572ZM71.6041 18.6176C71.4509 18.6823 71.2528 18.7422 71.0095 18.8068C70.6221 18.913 70.406 19.056 70.361 19.2314C70.3294 19.3421 70.3429 19.4298 70.397 19.4944C70.451 19.5589 70.5411 19.5866 70.6717 19.5866C70.9104 19.5866 71.0996 19.5267 71.2437 19.4021C71.3879 19.2775 71.4914 19.0837 71.568 18.8207C71.5816 18.7653 71.5905 18.7238 71.5996 18.6915L71.6041 18.6176Z" fill="#1B3281"/>
<path d="M72.7056 21.9677L73.0253 20.791H73.4352C73.5703 20.791 73.6785 20.7633 73.755 20.7125C73.8316 20.6618 73.8857 20.5695 73.9173 20.4542C73.9307 20.4034 73.9398 20.348 73.9487 20.2834C73.9532 20.2189 73.9532 20.145 73.9487 20.0666L73.7281 16.4212H75.1784L75.1559 18.8392L76.4215 16.4166H77.7728L75.5342 20.3803C75.282 20.8232 75.0972 21.1279 74.9801 21.294C74.863 21.4601 74.755 21.5847 74.6469 21.6723C74.5073 21.7923 74.3541 21.8754 74.1874 21.9262C74.0208 21.9769 73.7686 22 73.4262 22C73.3272 22 73.2145 22 73.093 21.9907C72.9668 21.9861 72.8407 21.9769 72.7056 21.9677Z" fill="#1B3281"/>
<path d="M43.4999 36C53.165 36 61 28.1647 61 18.4999C61 8.835 53.165 1 43.4999 1C33.835 1 26 8.835 26 18.4999C26 28.1647 33.835 36 43.4999 36Z" fill="#F3F5FC" stroke="black" stroke-width="2"/>
<path d="M47.8367 11.0006L43.9804 21.9222L43.5589 19.707L42.1821 12.3466C41.9555 11.3237 41.2586 11.0337 40.3998 11H34.0646L34 11.3241C35.5452 11.7397 36.927 12.3383 38.1378 13.0833L41.6469 27H45.8108L52 11.0006H47.8367Z" fill="#1434CB"/>
<path d="M18.5 36C28.1649 36 36 28.1647 36 18.4999C36 8.835 28.1649 1 18.5 1C8.83502 1 1 8.835 1 18.4999C1 28.1647 8.83502 36 18.5 36Z" fill="#F2FAFD" stroke="black" stroke-width="2"/>
<path d="M16.0213 18.5C16.0205 17.5157 16.2431 16.544 16.6726 15.6587C17.1021 14.7733 17.7269 13.9974 18.5 13.3897C17.5427 12.6361 16.3929 12.1673 15.1821 12.0371C13.9714 11.907 12.7486 12.1207 11.6533 12.6538C10.5581 13.1867 9.63467 14.0176 8.98863 15.0516C8.3426 16.0853 8 17.2803 8 18.5C8 19.7197 8.3426 20.9147 8.98863 21.9485C9.63467 22.9823 10.5581 23.8133 11.6533 24.3463C12.7486 24.8793 13.9714 25.0931 15.1821 24.9629C16.3929 24.8326 17.5427 24.364 18.5 23.6104C17.7269 23.0026 17.1021 22.2266 16.6726 21.3413C16.2432 20.4559 16.0205 19.4843 16.0213 18.5Z" fill="#EB001B"/>
<path d="M29 18.5C29.0001 19.7196 28.6576 20.9147 28.0116 21.9485C27.3654 22.9823 26.4422 23.8132 25.3468 24.3463C24.2516 24.8793 23.0287 25.0931 21.818 24.9629C20.6073 24.8326 19.4573 24.364 18.5 23.6104C19.2726 23.002 19.897 22.226 20.3263 21.3406C20.7556 20.4555 20.9787 19.4843 20.9787 18.5C20.9787 17.5158 20.7556 16.5446 20.3263 15.6592C19.897 14.7741 19.2726 13.998 18.5 13.3897C19.4573 12.6361 20.6073 12.1673 21.818 12.0371C23.0287 11.907 24.2516 12.1207 25.3468 12.6538C26.4422 13.1867 27.3654 14.0176 28.0116 15.0516C28.6576 16.0853 29.0001 17.2803 29 18.5Z" fill="#00A2E5"/>
<path d="M16.6747 15.6586C16.2452 16.544 16.0226 17.5156 16.0234 18.4999C16.0226 19.4842 16.2453 20.4559 16.6747 21.3412C17.1042 22.2266 17.729 23.0026 18.5021 23.6104C19.2747 23.0019 19.8991 22.2259 20.3284 21.3406C20.7577 20.4555 20.9808 19.4842 20.9808 18.4999C20.9808 17.5158 20.7577 16.5445 20.3284 15.6592C19.8991 14.7741 19.2747 13.998 18.5021 13.3896C17.729 13.9974 17.1042 14.7733 16.6747 15.6586Z" fill="#7375CF"/>
</svg>
