<svg width="80" height="80" viewBox="0 0 80 80" fill="none" xmlns="http://www.w3.org/2000/svg">
<path d="M28.5133 40.8142C30.4955 42.7964 33.143 43.353 35.2609 42.199C35.4102 42.1176 35.5595 42.0225 35.7089 41.9274C35.3017 40.0946 33.0615 32.641 22.3359 26.0293C22.9198 27.3598 23.2591 28.8668 23.6122 30.4417C24.3453 33.7408 25.1871 37.488 28.5133 40.8142Z" fill="#51BA69"/>
<path d="M34.0003 35.3704C35.6023 37.8277 36.3355 39.8643 36.6748 41.0725C38.1953 39.3076 38.3448 36.6195 37.8832 34.4064C37.0143 30.2384 33.8916 27.3873 28.5968 25.9347C26.7368 25.4323 24.8224 25.1336 22.8945 25.0251C27.7143 27.9983 31.4479 31.4603 34.0003 35.3704ZM53.8084 8C52.1385 8.10861 50.4957 8.38015 48.8801 8.80101C44.1555 10.1179 41.3588 12.6703 40.5849 16.3903C40.1912 18.2775 40.2997 20.5448 41.4809 22.1196C42.3091 19.5265 45.0787 13.4307 53.8084 8Z" fill="#51BA69"/>
<path d="M42.4041 23.0284C42.5671 23.1505 42.7435 23.2592 42.92 23.3541C44.8072 24.3724 47.1559 23.8836 48.9208 22.1051C51.8941 19.1183 52.6544 15.7513 53.3196 12.7916C53.6184 11.4475 53.9171 10.1441 54.4057 8.97656C45.2008 14.6923 42.9064 21.0869 42.4041 23.0284ZM18.1562 48.9189C18.1971 50.2493 18.36 51.5663 18.6451 52.8561H61.3569C61.6421 51.5663 61.8051 50.2493 61.8457 48.9189H18.1562ZM19.7584 56.5489C20.7765 59.0877 22.2836 61.3957 24.1979 63.3508C26.5873 65.7945 29.6421 67.7224 33.2671 69.0665C33.4843 69.148 33.62 69.3652 33.62 69.596V71.9991H46.382V69.5824C46.3684 69.3516 46.5177 69.1344 46.7351 69.0529C50.3736 67.7088 53.4011 65.7809 55.8041 63.3372C57.7184 61.3821 59.2255 59.0741 60.2437 56.5353C60.5696 55.7343 60.8547 54.9061 61.0719 54.078H18.9301C19.1475 54.9197 19.4325 55.7479 19.7584 56.5489ZM46.64 31.5816C44.8479 31.2421 43.3273 31.5408 43.0829 32.0432C42.9064 32.4097 43.2323 33.4008 44.1961 34.5005C44.7392 35.1115 46.2463 36.1297 46.5313 36.3063C47.8891 36.9172 48.9752 36.6456 49.6132 36.1433C49.5861 36.0483 49.5589 35.9532 49.5453 35.8447C48.5271 35.2744 47.5496 34.0389 47.5632 32.0296V31.826C47.2645 31.7173 46.9523 31.6495 46.64 31.5816ZM45.6353 41.7368C46.8572 41.9269 49.0159 41.1531 50.2513 40.0533C50.3464 39.9719 50.4415 39.8769 50.5229 39.7819C51.4189 38.8451 51.6091 37.8132 51.3917 37.0393C51.2832 37.0665 51.1339 37.0937 51.0252 37.0937C50.8216 37.0937 50.5772 37.0529 50.3871 36.9715C49.7219 37.5009 48.9072 37.7861 48.052 37.7861C47.5089 37.7861 46.9659 37.6775 46.4499 37.4873C45.228 39.0351 44.6713 41.0037 45.1193 41.5196C45.2552 41.6419 45.4452 41.7233 45.6353 41.7368ZM53.822 32.2332C52.4643 32.7628 51.8533 33.6452 51.704 34.4191C51.8263 34.4869 51.9484 34.582 52.0435 34.6907C53.2381 34.4055 54.7588 34.7992 55.9535 36.2927C57.9221 35.3152 59.3884 33.3059 59.1168 32.6135C59.0083 32.3147 58.3701 31.9481 57.2297 31.826C56.0893 31.7037 54.9352 31.8396 53.8492 32.2197C53.8356 32.2332 53.822 32.2332 53.822 32.2332ZM51.0252 27.1964C50.2513 27.1964 48.948 29.3551 48.7308 31.4729C48.7172 31.6495 48.7036 31.8396 48.7036 32.016C48.7036 33.3872 49.2603 34.2697 49.8984 34.7177C50.0748 34.5141 50.3056 34.3648 50.5636 34.2833C50.7401 33.2379 51.4461 32.0432 53.0345 31.31C52.7631 29.0564 51.6497 27.1964 51.0252 27.1964ZM54.012 42.1305C55.0711 42.6872 55.8449 42.7551 56.1164 42.5787C56.388 42.4021 56.5916 41.6961 56.4559 40.5557C56.3201 39.4152 55.9264 38.3156 55.3019 37.3516L55.2883 37.338C54.4193 36.0347 53.2789 35.6409 52.4236 35.7903C52.41 35.9532 52.3693 36.1161 52.3149 36.2519C52.8173 37.3109 52.7765 38.8315 51.6769 40.2163C52.3149 41.0037 53.116 41.6555 54.012 42.1305Z" fill="white"/>
<path d="M42.4023 23.0284C42.5653 23.1505 42.7418 23.2592 42.9183 23.3541C44.8054 24.3724 47.1542 23.8836 48.9191 22.1051C51.8925 19.1183 52.6527 15.7513 53.3179 12.7916C53.6166 11.4475 53.9154 10.1441 54.4041 8.97656C45.1991 14.6923 42.9047 21.0869 42.4023 23.0284ZM46.6383 31.5816C44.8462 31.2421 43.3257 31.5408 43.0813 32.0432C42.9047 32.4097 43.2306 33.4008 44.1945 34.5005C44.7375 35.1115 46.2446 36.1297 46.5297 36.3063C47.8873 36.9172 48.9734 36.6456 49.6115 36.1433C49.5845 36.0483 49.5573 35.9532 49.5437 35.8447C48.5254 35.2744 47.5479 34.0389 47.5615 32.0296V31.826C47.2629 31.7173 46.9506 31.6495 46.6383 31.5816ZM45.6337 41.7369C46.8555 41.9269 49.0142 41.1531 50.2497 40.0533C50.3447 39.9719 50.4397 39.8769 50.5211 39.7819C51.4173 38.8451 51.6073 37.8132 51.3901 37.0393C51.2815 37.0665 51.1322 37.0937 51.0235 37.0937C50.8199 37.0937 50.5755 37.0529 50.3854 36.9715C49.7202 37.5009 48.9055 37.7861 48.0502 37.7861C47.5071 37.7861 46.9641 37.6775 46.4482 37.4873C45.2263 39.0351 44.6697 41.0037 45.1177 41.5196C45.2535 41.6419 45.4435 41.7233 45.6337 41.7369ZM53.8203 32.2332C52.4626 32.7628 51.8517 33.6452 51.7023 34.4191C51.8246 34.4869 51.9467 34.582 52.0418 34.6907C53.2365 34.4055 54.7571 34.7992 55.9518 36.2927C57.9205 35.3152 59.3867 33.3059 59.1151 32.6135C59.0066 32.3147 58.3685 31.9481 57.2281 31.826C56.0875 31.7037 54.9335 31.8396 53.8474 32.2197C53.8339 32.2332 53.8203 32.2332 53.8203 32.2332ZM51.0235 27.1964C50.2497 27.1964 48.9463 29.3551 48.7291 31.4729C48.7155 31.6495 48.7019 31.8396 48.7019 32.016C48.7019 33.3873 49.2586 34.2697 49.8966 34.7177C50.0731 34.5141 50.3039 34.3648 50.5619 34.2833C50.7385 33.2379 51.4443 32.0432 53.0329 31.31C52.7613 29.0564 51.6481 27.1964 51.0235 27.1964ZM54.0103 42.1305C55.0694 42.6872 55.8433 42.7551 56.1147 42.5787C56.3863 42.4021 56.5899 41.6961 56.4542 40.5557C56.3183 39.4153 55.9247 38.3156 55.3002 37.3516L55.2866 37.338C54.4177 36.0347 53.2773 35.6409 52.4219 35.7903C52.4083 35.9532 52.3677 36.1161 52.3133 36.2519C52.8157 37.3109 52.7749 38.8315 51.6751 40.2163C52.3133 41.0037 53.1143 41.6555 54.0103 42.1305Z" fill="#51BA69"/>
<path d="M50.9835 36.389C51.3584 36.389 51.6624 36.085 51.6624 35.71C51.6624 35.3352 51.3584 35.0312 50.9835 35.0312C50.6087 35.0312 50.3047 35.3352 50.3047 35.71C50.3047 36.085 50.6087 36.389 50.9835 36.389Z" fill="#51BA69"/>
</svg>
