<svg width="567" height="160" viewBox="0 0 567 160" fill="none" xmlns="http://www.w3.org/2000/svg">
<mask id="mask0_132_17686" style="mask-type:alpha" maskUnits="userSpaceOnUse" x="0" y="0" width="567" height="160">
<path d="M6.99382e-06 160L0 4.57764e-05L567 2.0992e-05L567 160L6.99382e-06 160Z" fill="#D9D9D9"/>
</mask>
<g mask="url(#mask0_132_17686)">
</g>
<mask id="mask1_132_17686" style="mask-type:alpha" maskUnits="userSpaceOnUse" x="0" y="0" width="567" height="160">
<path d="M6.99382e-06 160L0 4.57764e-05L567 2.0992e-05L567 160L6.99382e-06 160Z" fill="#D9D9D9"/>
</mask>
<g mask="url(#mask1_132_17686)">
<rect x="6.99382e-06" y="486.611" width="486.611" height="567" rx="25" transform="rotate(-90 6.99382e-06 486.611)" fill="#0CAE59"/>
<path d="M285.372 148.713L474.369 166.213L550.519 226.159L565.996 235.095L541.78 231L474.369 246.514L169.989 226.159L110.85 221.443L29.792 211.638L1.66993 202.081L5.80553 198.482L1.66993 168.695L1.66992 117.808L5.80553 109.493L43.0259 88.766L122.843 109.493L261.386 109.493L285.372 148.713Z" fill="#065C2F"/>
<path d="M285.372 148.713L474.369 166.213L550.519 226.159L565.996 235.095L541.78 231L474.369 246.514L169.989 226.159L110.85 221.443L29.792 211.638L1.66993 202.081L5.80553 198.482L1.66993 168.695L1.66992 117.808L5.80553 109.493L43.0259 88.766L122.843 109.493L261.386 109.493L285.372 148.713Z" fill="#065C2F"/>
<path d="M285.372 148.713L474.369 166.213L550.519 226.159L565.996 235.095L541.78 231L474.369 246.514L169.989 226.159L110.85 221.443L29.792 211.638L1.66993 202.081L5.80553 198.482L1.66993 168.695L1.66992 117.808L5.80553 109.493L43.0259 88.766L122.843 109.493L261.386 109.493L285.372 148.713Z" fill="#065C2F"/>
<path d="M285.372 148.713L474.369 166.213L550.519 226.159L565.996 235.095L541.78 231L474.369 246.514L169.989 226.159L110.85 221.443L29.792 211.638L1.66993 202.081L5.80553 198.482L1.66993 168.695L1.66992 117.808L5.80553 109.493L43.0259 88.766L122.843 109.493L261.386 109.493L285.372 148.713Z" fill="#065C2F"/>
<path d="M285.372 148.713L474.369 166.213L550.519 226.159L565.996 235.095L541.78 231L474.369 246.514L169.989 226.159L110.85 221.443L29.792 211.638L1.66993 202.081L5.80553 198.482L1.66993 168.695L1.66992 117.808L5.80553 109.493L43.0259 88.766L122.843 109.493L261.386 109.493L285.372 148.713Z" fill="#065C2F"/>
<path d="M285.372 148.713L474.369 166.213L550.519 226.159L565.996 235.095L541.78 231L474.369 246.514L169.989 226.159L110.85 221.443L29.792 211.638L1.66993 202.081L5.80553 198.482L1.66993 168.695L1.66992 117.808L5.80553 109.493L43.0259 88.766L122.843 109.493L261.386 109.493L285.372 148.713Z" fill="#065C2F"/>
<path d="M285.372 148.713L474.369 166.213L550.519 226.159L565.996 235.095L541.78 231L474.369 246.514L169.989 226.159L110.85 221.443L29.792 211.638L1.66993 202.081L5.80553 198.482L1.66993 168.695L1.66992 117.808L5.80553 109.493L43.0259 88.766L122.843 109.493L261.386 109.493L285.372 148.713Z" fill="#065C2F"/>
<path d="M285.372 124.65L474.369 142.15L550.519 202.097L565.996 211.033L541.78 206.937L474.369 222.451L169.989 202.097L110.85 197.38L29.792 187.575L1.66993 178.019L5.80553 174.419L1.66993 144.632L1.66992 93.746L5.80553 85.4304L43.0259 64.7035L122.843 85.4304L261.386 85.4304L285.372 124.65Z" fill="#065C2F"/>
<path d="M283.547 200.038L94.8299 182.567L18.7928 122.722L3.33869 113.801L27.5194 117.89L94.83 102.402L398.76 122.722L457.812 127.431L538.75 137.219L566.83 146.76L562.701 150.353L566.83 180.089L566.83 230.889L562.701 239.191L525.535 259.883L445.836 239.191L307.498 239.191L283.547 200.038Z" fill="#065C2F"/>
<path d="M285.372 148.713L474.369 166.213L550.519 226.159L565.996 235.095L541.78 231L474.369 246.514L169.989 226.159L110.85 221.443L29.792 211.638L1.66993 202.081L5.80553 198.482L1.66993 168.695L1.66992 117.808L5.80553 109.493L43.0259 88.766L122.843 109.493L261.386 109.493L285.372 148.713Z" fill="#065C2F"/>
<foreignObject x="-215" y="-215" width="997" height="916.611"><div xmlns="http://www.w3.org/1999/xhtml" style="backdrop-filter:blur(107.5px);clip-path:url(#bgblur_0_132_17686_clip_path);height:100%;width:100%"></div></foreignObject><rect data-figma-bg-blur-radius="215" x="6.99382e-06" y="486.611" width="486.611" height="567" transform="rotate(-90 6.99382e-06 486.611)" fill="white" fill-opacity="0.02"/>
</g>
<defs>
<clipPath id="bgblur_0_132_17686_clip_path" transform="translate(215 215)"><rect x="6.99382e-06" y="486.611" width="486.611" height="567" transform="rotate(-90 6.99382e-06 486.611)"/>
</clipPath></defs>
</svg>
