<svg width="20" height="21" viewBox="0 0 20 21" fill="none" xmlns="http://www.w3.org/2000/svg">
<g clip-path="url(#clip0_132_13569)">
<path d="M19.3756 8.28068C19.7919 8.851 20 9.49868 20 10.2237C20 11.3113 19.7922 11.6097 19.3756 12.2055C18.9787 12.7614 18.4192 13.182 17.7733 13.4102C18.06 14.0314 18.1381 14.7048 18.0078 15.4306C17.9046 16.125 17.5751 16.7664 17.07 17.2565C16.5493 17.7745 15.9374 18.0855 15.2344 18.1894C14.5495 18.3211 13.8404 18.2401 13.2033 17.9573C13.0478 18.3964 12.8133 18.7718 12.5 19.0835C12.1874 19.4195 11.8096 19.6785 11.3667 19.8605C10.9422 20.07 10.4738 20.1764 10 20.1711C9.28686 20.1759 8.59013 19.9583 8.00778 19.5488C7.44931 19.1547 7.02644 18.5989 6.79667 17.9573C6.1596 18.2401 5.4505 18.3211 4.76556 18.1894C4.06753 18.0867 3.42267 17.759 2.93 17.2565C2.42273 16.7626 2.08123 16.1249 1.95222 15.4306C1.84235 14.745 1.9378 14.0423 2.22667 13.4102C1.58119 13.1818 1.02212 12.7612 0.625556 12.2055C0.208519 11.6086 0 10.9481 0 10.2237C0 9.13726 0.208889 8.851 0.625556 8.28068C1.04259 7.68531 1.57593 7.27084 2.22556 7.03726C1.93869 6.41832 1.84391 5.72833 1.95333 5.05552C2.0837 4.33047 2.40926 3.70895 2.93 3.19095C3.42267 2.68847 4.06753 2.36074 4.76556 2.2581C5.49444 2.12916 6.17148 2.20653 6.79667 2.49021C7.02644 1.84853 7.44931 1.29282 8.00778 0.89863C8.60778 0.483788 9.27185 0.276367 10 0.276367C11.0922 0.276367 11.38 0.484157 11.9533 0.89863C12.5526 1.31347 12.9693 1.844 13.2033 2.49021C13.8263 2.2062 14.5235 2.12497 15.1956 2.2581C15.9074 2.35257 16.5672 2.6809 17.07 3.19095C17.5907 3.70821 17.9033 4.32974 18.0078 5.05552C18.1381 5.75479 18.0604 6.41537 17.7744 7.03726C18.4241 7.27084 18.9585 7.68531 19.3756 8.28068ZM8.35889 6.88252C8.12556 6.62316 7.83926 6.49347 7.5 6.49347C6.99111 6.49347 6.86222 6.62279 6.60111 6.88252C6.36704 7.11463 6.25 7.39942 6.25 7.73689C6.25 8.2431 6.36667 8.37131 6.60111 8.63105C6.86185 8.86389 7.16148 8.98031 7.5 8.98031C8.00778 8.98031 8.12556 8.86426 8.35889 8.63105C8.61963 8.37168 8.75 8.07363 8.75 7.73689C8.75 7.23179 8.62 7.11574 8.35889 6.88252ZM7.96889 13.5649L13.3589 8.20331C13.6456 7.91816 13.6456 7.633 13.3589 7.34784L12.8911 6.88252C12.6044 6.59737 12.3178 6.59737 12.0311 6.88252L6.64111 12.2442C6.35444 12.5293 6.35444 12.8145 6.64111 13.0996L7.10889 13.5649C7.39556 13.8501 7.68222 13.8501 7.96889 13.5649ZM11.6022 13.6047C11.8615 13.8376 12.1607 13.954 12.5 13.954C12.8393 13.954 13.1256 13.8376 13.3589 13.6047C13.6196 13.3454 13.75 13.0473 13.75 12.7106C13.75 12.3738 13.6196 12.0891 13.3589 11.8562C13.2532 11.7326 13.1215 11.6337 12.973 11.5665C12.8246 11.4992 12.6631 11.4653 12.5 11.4672C12.1615 11.4672 11.8619 11.5968 11.6011 11.8562C11.367 12.0883 11.25 12.3731 11.25 12.7106C11.25 13.0473 11.367 13.3454 11.6011 13.6047" fill="white"/>
</g>
<defs>
<clipPath id="clip0_132_13569">
<rect width="20" height="21" fill="white"/>
</clipPath>
</defs>
</svg>
