<svg width="80" height="80" viewBox="0 0 80 80" fill="none" xmlns="http://www.w3.org/2000/svg">
<path d="M37.5581 54.7626L36.1552 57.5835L41.6805 67.3098L38.2194 46.7858L33.2997 48.1661L37.4602 53.6955C37.6928 54.0038 37.7298 54.4167 37.5581 54.7626ZM41.5354 53.9341C43.2494 54.5777 45.2426 54.9177 47.2984 54.9177C48.9846 54.9177 50.6624 54.6833 52.1488 54.2405C52.1868 54.2291 52.2258 54.225 52.2638 54.2182L53.4412 47.2359C52.5902 45.5383 51.9072 43.4585 51.5449 42.2522C50.074 43.0378 48.4742 43.4707 46.8088 43.4707C45.1573 43.4707 43.5698 43.0455 42.1089 42.2726C41.7589 43.3661 41.1242 45.1729 40.291 46.803L41.4914 53.9222C41.506 53.9267 41.5209 53.9286 41.5354 53.9341ZM46.8088 41.4309C51.0141 41.4309 54.7842 37.9866 56.4144 32.6557C56.5494 32.2142 56.9493 31.9019 57.4266 31.935C57.4402 31.9359 57.4833 31.9382 57.4964 31.9395C58.6832 31.9382 59.6764 30.945 59.6764 29.7237C59.6773 29.2273 59.5106 28.7451 59.2034 28.3551C58.8962 27.965 58.4665 27.6901 57.9837 27.5746C57.7664 27.5221 57.5724 27.3995 57.4314 27.2258C57.2906 27.0522 57.2106 26.8371 57.204 26.6135C57.1125 23.4975 56.2729 20.527 54.8214 18.1309C52.8554 19.425 50.3286 20.119 47.2916 20.1957C39.2145 20.3997 37.9901 21.1575 36.3745 26.9567C36.3309 27.1137 36.2502 27.2579 36.1394 27.3773C36.0286 27.4967 35.8909 27.5878 35.7376 27.643C35.3093 27.7975 34.939 28.0801 34.6768 28.4523C34.4146 28.8246 34.2733 29.2685 34.2721 29.7237C34.2721 30.8683 35.166 31.8362 36.3074 31.9282C36.7245 31.9617 37.0785 32.2469 37.2005 32.6475C38.8292 37.983 42.6002 41.4309 46.8088 41.4309ZM27.3138 39.8715L26.467 36.7119C26.4278 36.5653 26.4218 36.4118 26.4494 36.2626C26.477 36.1134 26.5376 35.9722 26.6266 35.8493C27.5989 34.5075 28.1129 32.9839 28.1129 31.4431C28.1129 26.493 22.9652 22.4658 16.637 22.4658C10.3088 22.4658 5.16016 26.493 5.16016 31.4431C5.16016 36.3933 10.3088 40.4199 16.637 40.4199C18.8654 40.4199 21.0292 39.9154 22.8945 38.9603C23.1197 38.8457 23.3792 38.8181 23.6234 38.8829L27.3138 39.8715ZM11.8659 32.0487H11.3868C11.1163 32.0487 10.8569 31.9413 10.6656 31.7501C10.4743 31.5587 10.3668 31.2993 10.3668 31.0289C10.3668 30.7583 10.4743 30.4989 10.6656 30.3075C10.8569 30.1163 11.1163 30.0089 11.3868 30.0089H11.8659C12.1365 30.0089 12.3959 30.1163 12.5872 30.3075C12.7784 30.4989 12.8859 30.7583 12.8859 31.0289C12.8859 31.2993 12.7784 31.5587 12.5872 31.7501C12.3959 31.9413 12.1365 32.0487 11.8659 32.0487ZM16.5626 32.0487H16.0836C15.813 32.0487 15.5536 31.9413 15.3624 31.7501C15.171 31.5587 15.0636 31.2993 15.0636 31.0289C15.0636 30.7583 15.171 30.4989 15.3624 30.3075C15.5536 30.1163 15.813 30.0089 16.0836 30.0089H16.5626C16.8332 30.0089 17.0926 30.1163 17.2838 30.3075C17.4752 30.4989 17.5826 30.7583 17.5826 31.0289C17.5826 31.2993 17.4752 31.5587 17.2838 31.7501C17.0926 31.9413 16.8332 32.0487 16.5626 32.0487ZM21.2589 32.0487H20.7802C20.5097 32.0487 20.2504 31.9413 20.059 31.7501C19.8677 31.5587 19.7604 31.2993 19.7604 31.0289C19.7604 30.7583 19.8677 30.4989 20.059 30.3075C20.2504 30.1163 20.5097 30.0089 20.7802 30.0089H21.2594C21.53 30.0089 21.7893 30.1163 21.9806 30.3075C22.1718 30.4989 22.2793 30.7583 22.2793 31.0289C22.2793 31.2993 22.1718 31.5587 21.9806 31.7501C21.7893 31.9413 21.5294 32.0487 21.2589 32.0487ZM57.6501 57.5835L56.2466 54.7626C56.1624 54.5931 56.1269 54.4034 56.1442 54.2149C56.1616 54.0263 56.2312 53.8463 56.345 53.6951L60.5054 48.1661L55.5857 46.7858L52.1252 67.3098L57.6501 57.5835Z" fill="white"/>
<path d="M27.3138 39.8724L26.467 36.7129C26.4278 36.5663 26.4218 36.4128 26.4494 36.2636C26.477 36.1144 26.5376 35.9732 26.6266 35.8503C27.5989 34.5084 28.1129 32.9849 28.1129 31.4441C28.1129 26.494 22.9652 22.4668 16.637 22.4668C10.3088 22.4668 5.16016 26.494 5.16016 31.4441C5.16016 36.3943 10.3088 40.4209 16.637 40.4209C18.8654 40.4209 21.0292 39.9164 22.8945 38.9613C23.1197 38.8467 23.3792 38.8191 23.6234 38.8837L27.3138 39.8724ZM11.8659 32.0497H11.3868C11.1163 32.0497 10.8569 31.9423 10.6656 31.7509C10.4743 31.5597 10.3668 31.3003 10.3668 31.0297C10.3668 30.7593 10.4743 30.4999 10.6656 30.3085C10.8569 30.1173 11.1163 30.0099 11.3868 30.0099H11.8659C12.1365 30.0099 12.3959 30.1173 12.5872 30.3085C12.7784 30.4999 12.8859 30.7593 12.8859 31.0297C12.8859 31.3003 12.7784 31.5597 12.5872 31.7509C12.3959 31.9423 12.1365 32.0497 11.8659 32.0497ZM16.5626 32.0497H16.0836C15.813 32.0497 15.5536 31.9423 15.3624 31.7509C15.171 31.5597 15.0636 31.3003 15.0636 31.0297C15.0636 30.7593 15.171 30.4999 15.3624 30.3085C15.5536 30.1173 15.813 30.0099 16.0836 30.0099H16.5626C16.8332 30.0099 17.0926 30.1173 17.2838 30.3085C17.4752 30.4999 17.5826 30.7593 17.5826 31.0297C17.5826 31.3003 17.4752 31.5597 17.2838 31.7509C17.0926 31.9423 16.8332 32.0497 16.5626 32.0497ZM21.2589 32.0497H20.7802C20.5097 32.0497 20.2504 31.9423 20.059 31.7509C19.8677 31.5597 19.7604 31.3003 19.7604 31.0297C19.7604 30.7593 19.8677 30.4999 20.059 30.3085C20.2504 30.1173 20.5097 30.0099 20.7802 30.0099H21.2594C21.53 30.0099 21.7893 30.1173 21.9806 30.3085C22.1718 30.4999 22.2793 30.7593 22.2793 31.0297C22.2793 31.3003 22.1718 31.5597 21.9806 31.7509C21.7893 31.9423 21.5294 32.0497 21.2589 32.0497Z" fill="#51BA69"/>
<path d="M47.2365 18.1569C50.2949 18.0799 52.7133 17.316 54.4237 15.8872C54.5316 15.7973 54.6569 15.7307 54.7917 15.6915C54.9265 15.6521 55.068 15.6412 55.2073 15.6591C55.3465 15.6769 55.4806 15.7233 55.6012 15.7953C55.7217 15.8673 55.8261 15.9635 55.9078 16.0776C57.4082 18.1819 58.4373 20.7612 58.9241 23.5355C61.1481 19.6805 61.7922 16.7232 60.7754 14.9203C59.4186 12.516 55.3842 12.6493 55.347 12.6529C54.9286 12.6565 54.5438 12.4326 54.3734 12.0527C54.2501 11.7871 51.1712 5.45933 40.7633 9.15607C36.1328 10.8002 33.0557 13.5776 32.3208 16.7761C31.7433 19.2907 32.6486 22.0073 34.9369 24.6932C36.8362 19.1977 39.5062 18.3515 47.2365 18.1569ZM47.2949 56.9579C45.402 56.9579 43.5506 56.6927 41.8712 56.1932L44.5366 72H49.2624L51.891 56.4103C50.3865 56.7764 48.8434 56.9603 47.2949 56.9579ZM34.0837 57.1615L35.4482 54.4189L33.8638 52.3133C33.1196 52.9184 31.6989 54.5844 31.1504 58.6887C32.082 58.976 32.9092 59.5297 33.5298 60.2815C33.9529 60.7892 34.271 61.3757 34.4658 62.0071C34.6608 62.6385 34.7284 63.3024 34.6649 63.9601L34.183 69.1024C34.1577 69.3717 34.0265 69.62 33.8182 69.7925C33.61 69.9651 33.3417 70.0479 33.0724 70.0227L30.8276 69.8124C30.693 69.8015 30.562 69.7639 30.442 69.702C30.3221 69.64 30.2156 69.5548 30.1288 69.4513C30.042 69.348 29.9766 69.2284 29.9364 69.0995C29.8962 68.9705 29.882 68.8349 29.8946 68.7005C29.9072 68.5661 29.9464 68.4355 30.0098 68.3163C30.0733 68.1972 30.1597 68.0917 30.2642 68.0063C30.3688 67.9208 30.4892 67.8569 30.6186 67.8183C30.748 67.7797 30.8837 67.7672 31.018 67.7815L32.2474 67.8967L32.6336 63.7697C32.708 62.9747 32.4686 62.1976 31.959 61.5829C31.4496 60.9683 30.731 60.5884 29.9356 60.5141C28.2964 60.3595 26.833 61.5703 26.6794 63.2121L26.2928 67.3387L27.5928 67.4605C27.7274 67.4715 27.8585 67.5091 27.9785 67.5709C28.0984 67.6329 28.2049 67.7181 28.2917 67.8215C28.3785 67.9249 28.4438 68.0445 28.4841 68.1735C28.5242 68.3024 28.5385 68.438 28.5258 68.5724C28.5133 68.7068 28.4741 68.8375 28.4106 68.9565C28.3472 69.0757 28.2606 69.1812 28.1562 69.2667C28.0517 69.3521 27.9313 69.416 27.8018 69.4545C27.6725 69.4932 27.5366 69.5057 27.4025 69.4913L25.0869 69.2747C24.8177 69.2495 24.5694 69.1183 24.3969 68.91C24.2242 68.7017 24.1414 68.4335 24.1668 68.1641L24.6481 63.0217C24.8748 60.602 26.7932 58.7357 29.1192 58.4883C29.5104 55.4847 30.334 53.5323 31.1776 52.2743C26.0325 53.4197 22.4146 56.942 20.4084 62.7739C19.1096 66.5472 18.8738 70.2833 18.8398 72H41.9953L34.1101 58.1197C34.0274 57.9744 33.9818 57.8109 33.9773 57.6439C33.9728 57.4767 34.0093 57.3111 34.0837 57.1615ZM59.8217 64.656C59.8217 65.8404 60.7849 66.8041 61.969 66.8041C63.153 66.8041 64.1168 65.8404 64.1168 64.656C64.1168 63.4715 63.1536 62.5087 61.969 62.5087C60.7845 62.5087 59.8217 63.4719 59.8217 64.656Z" fill="white"/>
<path d="M63.6234 52.5683C64.65 54.3815 65.3786 57.1807 64.3395 61.2069C64.8998 61.5912 65.358 62.106 65.6748 62.7071C65.9915 63.3081 66.1571 63.9772 66.1574 64.6567C66.1574 66.9653 64.2792 68.8443 61.97 68.8443C59.661 68.8443 57.7828 66.9653 57.7828 64.6561C57.7828 62.3469 59.6614 60.4689 61.97 60.4689C62.1215 60.4689 62.2702 60.478 62.4171 60.4935C63.6528 55.4204 61.5788 52.8669 60.5748 51.9703C60.4642 51.9589 60.3572 51.9408 60.2452 51.9313C60.2384 51.9309 60.2326 51.9287 60.2262 51.9277L58.3518 54.4187L59.7163 57.1616C59.7906 57.3112 59.827 57.4768 59.8223 57.6439C59.8178 57.8109 59.772 57.9741 59.6895 58.1195L51.8047 72.0001H74.8404C74.8064 70.2835 74.5703 66.5473 73.272 62.7745C71.4143 57.3756 68.1763 53.9559 63.6234 52.5683Z" fill="white"/>
</svg>
