<svg width="52" height="52" viewBox="0 0 52 52" fill="none" xmlns="http://www.w3.org/2000/svg">
<rect width="52" height="52" fill="#6FCD95"/>
<path d="M13.542 34V18.534H16.49V34H13.542ZM10.506 21.13V18.534H16.27V21.13H10.506ZM18.8701 35.034L24.6561 17.544H27.2521L21.4661 35.034H18.8701ZM28.6068 32.284L34.4368 26.19C34.8475 25.75 35.1775 25.3613 35.4268 25.024C35.6908 24.672 35.8815 24.342 35.9988 24.034C36.1162 23.7113 36.1748 23.3887 36.1748 23.066C36.1748 22.4207 35.9622 21.9147 35.5368 21.548C35.1262 21.1813 34.5908 20.998 33.9308 20.998C33.2562 20.998 32.6548 21.174 32.1268 21.526C31.6135 21.878 31.1295 22.4353 30.6748 23.198L28.6288 21.46C29.2448 20.4187 30.0075 19.634 30.9168 19.106C31.8408 18.5633 32.8968 18.292 34.0848 18.292C35.0968 18.292 35.9768 18.49 36.7248 18.886C37.4875 19.282 38.0742 19.832 38.4848 20.536C38.8955 21.24 39.1008 22.0613 39.1008 23C39.1008 23.6307 39.0202 24.2027 38.8588 24.716C38.7122 25.2293 38.4555 25.7427 38.0888 26.256C37.7368 26.7547 37.2455 27.3193 36.6148 27.95L32.3688 32.284H28.6068ZM28.6068 34V32.284L31.1588 31.404H39.4308V34H28.6068Z" fill="white"/>
</svg>
