<svg width="98" height="98" viewBox="0 0 98 98" fill="none" xmlns="http://www.w3.org/2000/svg">
<g filter="url(#filter0_d_132_13545)">
<circle cx="50" cy="50" r="35" fill="white"/>
</g>
<path d="M53.4393 46.4007V46.887C53.4393 47.2881 53.1111 47.6164 52.7099 47.6164H47.6042V52.7221C47.6042 53.1233 47.276 53.4515 46.8748 53.4515H46.3886C45.9874 53.4515 45.6592 53.1233 45.6592 52.7221V47.6164H40.5534C40.1523 47.6164 39.824 47.2881 39.824 46.887V46.4007C39.824 45.9995 40.1523 45.6713 40.5534 45.6713H45.6592V40.5656C45.6592 40.1644 45.9874 39.8362 46.3886 39.8362H46.8748C47.276 39.8362 47.6042 40.1644 47.6042 40.5656V45.6713H52.7099C53.1111 45.6713 53.4393 45.9995 53.4393 46.4007ZM64.8969 64.21L64.21 64.8969C63.9243 65.1825 63.4624 65.1825 63.1767 64.8969L55.3358 57.0559C55.196 56.9161 55.123 56.7338 55.123 56.5392V56.0226C52.8801 58.0527 49.9079 59.2866 46.6438 59.2866C39.7025 59.2866 34.0922 53.7493 34.0011 46.808C33.9099 39.6964 39.6964 33.9099 46.808 34.0011C53.7493 34.0922 59.2866 39.7025 59.2866 46.6438C59.2866 49.9079 58.0527 52.8801 56.0226 55.123H56.5392C56.7338 55.123 56.9161 55.202 57.0559 55.3358L64.8969 63.1767C65.1825 63.4624 65.1825 63.9243 64.8969 64.21ZM57.3416 46.6438C57.3416 40.7297 52.558 35.9461 46.6438 35.9461C40.7297 35.9461 35.9461 40.7297 35.9461 46.6438C35.9461 52.558 40.7297 57.3416 46.6438 57.3416C52.558 57.3416 57.3416 52.558 57.3416 46.6438Z" fill="black"/>
<defs>
<filter id="filter0_d_132_13545" x="0" y="0" width="98" height="98" filterUnits="userSpaceOnUse" color-interpolation-filters="sRGB">
<feFlood flood-opacity="0" result="BackgroundImageFix"/>
<feColorMatrix in="SourceAlpha" type="matrix" values="0 0 0 0 0 0 0 0 0 0 0 0 0 0 0 0 0 0 127 0" result="hardAlpha"/>
<feOffset dx="-1" dy="-1"/>
<feGaussianBlur stdDeviation="7"/>
<feComposite in2="hardAlpha" operator="out"/>
<feColorMatrix type="matrix" values="0 0 0 0 0.0235294 0 0 0 0 0.360784 0 0 0 0 0.184314 0 0 0 0.6 0"/>
<feBlend mode="normal" in2="BackgroundImageFix" result="effect1_dropShadow_132_13545"/>
<feBlend mode="normal" in="SourceGraphic" in2="effect1_dropShadow_132_13545" result="shape"/>
</filter>
</defs>
</svg>
