<svg width="80" height="80" viewBox="0 0 80 80" fill="none" xmlns="http://www.w3.org/2000/svg">
<path fill-rule="evenodd" clip-rule="evenodd" d="M43.3695 19.4863C43.3695 20.7773 44.4188 21.8268 45.71 21.8268C46.9997 21.8268 48.0505 20.7773 48.0505 19.4863C48.0505 18.1951 46.9997 17.1456 45.71 17.1456C44.4175 17.1456 43.3695 18.1951 43.3695 19.4863ZM41.9511 53.1833C41.5823 55.0572 41.1853 56.3329 40.8668 57.3585C40.2199 59.4364 39.8705 60.5627 40.6223 64.3411C42.2795 63.5516 43.5469 62.6265 44.3951 61.5841C45.7169 59.9591 46.0119 58.0321 45.2755 55.8452L43.9437 56.4084C43.6363 56.5383 43.2815 56.474 43.0396 56.2449C42.7979 56.0157 42.7155 55.6636 42.8287 55.3505C44.0681 51.9355 44.2204 49.0317 43.2813 46.7177C42.4052 44.556 40.5231 42.7843 37.6795 41.4385C37.6989 43.1783 37.3776 44.9081 37.066 46.5948C36.4931 49.6871 35.9523 52.6076 37.2937 55.6147C37.4447 55.9543 37.3552 56.3525 37.0729 56.5943C36.7907 56.836 36.3827 56.8625 36.0711 56.6599L34.7311 55.7893C33.9723 57.9664 34.2755 59.9115 35.6351 61.5841C36.3883 62.5092 37.4712 63.342 38.8644 64.07C38.1839 60.3349 38.5905 59.0256 39.2655 56.8597C39.5883 55.8215 39.9557 54.6449 40.3064 52.8591C40.6208 51.2647 39.9081 48.5791 38.4927 46.0149C38.3879 45.8205 38.3639 45.5927 38.4261 45.3807C38.4884 45.1688 38.6317 44.99 38.8251 44.8832C39.0184 44.7765 39.246 44.7503 39.4585 44.8104C39.6711 44.8705 39.8512 45.0121 39.9599 45.2044C41.2301 47.5031 42.4192 50.8064 41.9511 53.1833ZM46.5359 32.7945V43.9287C46.5359 44.0684 46.5708 44.2067 46.6379 44.3297L57.9452 65.0775C58.7668 66.5867 58.7361 68.2313 57.8585 69.7097C56.9811 71.1868 55.5515 72 53.8328 72H26.1639C24.4451 72 23.0156 71.1868 22.1381 69.7097C21.2605 68.2313 21.2299 66.5867 22.0529 65.0775L33.3588 44.3297C33.4259 44.2067 33.4623 44.0684 33.4623 43.9287V32.7945H46.5359ZM37.0576 39.344C44.2247 42.1721 46.8809 47.1496 44.968 54.1544L45.418 53.9644C45.8413 53.7856 46.3304 53.9812 46.5135 54.4017C47.8549 57.4871 47.5727 60.3363 45.696 62.642C44.6411 63.9401 43.0829 65.0621 41.0611 65.9859C41.2511 66.3924 41.5235 66.8284 41.8407 67.3343C42.0992 67.7464 42.3927 68.2145 42.6903 68.7469C42.9167 69.1508 42.7713 69.6623 42.3676 69.8887C42.2389 69.9612 42.0979 69.9948 41.9595 69.9948C41.666 69.9948 41.3811 69.8411 41.2273 69.5659C40.9492 69.0697 40.6809 68.6408 40.4196 68.2257C39.9613 67.4936 39.5575 66.8437 39.3213 66.1437C37.1275 65.1907 35.4507 64.0141 34.3341 62.642C32.3779 60.2357 32.1165 57.3111 33.5796 54.1796C33.6303 54.0709 33.7036 53.9744 33.7947 53.8965C33.8859 53.8187 33.9925 53.7613 34.1079 53.7283C34.3412 53.6625 34.5913 53.7003 34.7953 53.8316L35.0189 53.9769C34.4837 51.3319 34.956 48.7775 35.4171 46.2888C35.8084 44.1788 36.1773 42.1861 35.9188 40.234C35.8796 39.9392 35.9999 39.6472 36.2332 39.4641C36.3483 39.3741 36.4848 39.3156 36.6295 39.2945C36.774 39.2735 36.9216 39.2905 37.0576 39.344ZM49.4284 26.9607H30.5683V31.1177H49.4284V26.9607ZM39.0796 9.89061C39.0796 10.933 39.9277 11.7798 40.9701 11.7798C42.0127 11.7798 42.8593 10.933 42.8593 9.89061C42.8593 8.84819 42.0127 8 40.9701 8C39.9277 8.0014 39.0796 8.84959 39.0796 9.89061ZM33.8367 19.8551C34.8792 19.8551 35.7273 19.0069 35.7273 17.9645C35.7273 16.9221 34.8792 16.0739 33.8367 16.0739C32.7943 16.0739 31.9461 16.9221 31.9461 17.9645C31.9461 19.0069 32.7943 19.8551 33.8367 19.8551Z" fill="white"/>
<path d="M41.9512 53.1843C41.5832 55.0532 41.1875 56.3272 40.8694 57.3515L40.8668 57.3595C40.2199 59.4373 39.8706 60.5636 40.6223 64.342C42.2796 63.5525 43.547 62.6275 44.3952 61.5851C45.7171 59.96 46.0119 58.0331 45.2755 55.8461L43.9438 56.4093C43.6364 56.5392 43.2815 56.4749 43.0398 56.2459C42.798 56.0167 42.7155 55.6645 42.8287 55.3515C44.0682 51.9364 44.2206 49.0327 43.2815 46.7187C42.4054 44.5569 40.5231 42.7852 37.6795 41.4395C37.699 43.1703 37.381 44.8912 37.071 46.5696L37.066 46.5957C36.4931 49.688 35.9524 52.6085 37.2939 55.6156C37.4447 55.9552 37.3554 56.3535 37.0731 56.5952C36.7908 56.8369 36.3828 56.8635 36.0711 56.6608L34.7311 55.7903C33.9723 57.9673 34.2755 59.9124 35.6352 61.5851C36.3883 62.5101 37.4714 63.3429 38.8644 64.0709C38.1839 60.3359 38.5906 59.0265 39.2655 56.8607L39.2735 56.8351C39.5943 55.8031 39.9587 54.6312 40.3066 52.86C40.621 51.2657 39.9083 48.58 38.4927 46.0159C38.3879 45.8215 38.364 45.5936 38.4262 45.3816C38.4884 45.1697 38.6318 44.9909 38.8251 44.8841C39.0184 44.7775 39.2462 44.7512 39.4586 44.8113C39.6711 44.8715 39.8512 45.0131 39.96 45.2053C41.2302 47.504 42.4194 50.8073 41.9512 53.1843Z" fill="#51BA69"/>
<path fill-rule="evenodd" clip-rule="evenodd" d="M45.7131 21.8268C44.422 21.8268 43.3726 20.7773 43.3726 19.4863C43.3726 18.1951 44.4205 17.1456 45.7131 17.1456C47.0028 17.1456 48.0538 18.1951 48.0538 19.4863C48.0538 20.7773 47.0028 21.8268 45.7131 21.8268ZM40.9734 11.7798C39.931 11.7798 39.0827 10.933 39.0827 9.89061C39.0827 8.84959 39.931 8.0014 40.9734 8C42.0158 8 42.8626 8.84819 42.8626 9.89061C42.8626 10.933 42.0158 11.7798 40.9734 11.7798ZM35.7304 17.9645C35.7304 19.0069 34.8823 19.8551 33.8399 19.8551C32.7975 19.8551 31.9492 19.0069 31.9492 17.9645C31.9492 16.9221 32.7975 16.0739 33.8399 16.0739C34.8823 16.0739 35.7304 16.9221 35.7304 17.9645Z" fill="#51BA69"/>
</svg>
