<svg width="80" height="80" viewBox="0 0 80 80" fill="none" xmlns="http://www.w3.org/2000/svg">
<path d="M18.3077 31.1875C18.3077 29.8957 18.8025 28.7225 19.6045 27.8716V24.6368C19.6045 18.036 23.5281 14.0776 26.8184 11.9185C30.5581 9.46511 35.5807 8 40.2548 8C45.623 8 49.0918 9.96384 49.0918 13.0045V13.9479H49.642C52.3525 13.9479 54.5565 16.1519 54.5565 18.8624V21.118C53.9656 20.938 53.3649 20.7921 52.7573 20.6811C51.7858 20.5036 50.8004 20.4145 49.8129 20.4149C49.218 20.4149 48.6292 20.4472 48.0496 20.51C47.2612 20.594 46.4802 20.7365 45.7132 20.9368C45.2209 20.7041 44.6566 20.6116 44.0782 20.6964L36.7014 21.7785C36.6669 21.7835 36.6321 21.7865 36.5972 21.7876L29.945 21.9803C27.5701 22.0472 25.7102 23.9608 25.7102 26.3384V28.0864C25.7105 28.2543 25.6636 28.4188 25.5751 28.5615C25.4865 28.7041 25.3597 28.8191 25.2092 28.8935C25.0586 28.9677 24.8903 28.9985 24.7231 28.9821C24.5559 28.9659 24.3966 28.9031 24.2633 28.8009C23.8225 28.4616 23.3006 28.2829 22.7558 28.2829C21.2958 28.2829 20.1083 29.5861 20.1083 31.1876C20.1083 32.6463 21.1029 33.8839 22.4241 34.0664C22.6153 34.0929 22.793 34.1803 22.9309 34.3153C23.0689 34.4505 23.1597 34.6264 23.1901 34.8171C24.3687 42.2788 30.2394 47.6935 37.1498 47.6935C37.3324 47.6935 37.5136 47.6895 37.6948 47.6819C38.224 48.2699 38.7957 48.818 39.4054 49.3219C38.6592 49.4373 37.9052 49.4949 37.15 49.494C35.253 49.494 33.3844 49.1264 31.6313 48.4248C31.0129 48.1779 30.4113 47.8903 29.8309 47.5637C28.7449 46.9572 27.7218 46.2117 26.781 45.3391C24.0912 42.8419 22.2366 39.44 21.5182 35.704C19.6483 35.1304 18.3077 33.2991 18.3077 31.1875ZM27.4338 32.6513C27.4338 33.1484 27.8366 33.5513 28.3337 33.5513C28.8308 33.5513 29.2336 33.1484 29.2336 32.6513C29.2336 31.886 29.8562 31.2633 30.6216 31.2633C31.3869 31.2633 32.0096 31.886 32.0096 32.6513C32.0096 32.89 32.1044 33.1189 32.2732 33.2877C32.442 33.4565 32.6708 33.5513 32.9094 33.5513C33.1481 33.5513 33.377 33.4565 33.5458 33.2877C33.7145 33.1189 33.8093 32.89 33.8093 32.6513C33.8093 30.8937 32.3793 29.4637 30.6216 29.4637C28.8638 29.4637 27.4338 30.8936 27.4338 32.6513ZM64.3458 36.7459C64.3458 42.7837 60.6444 47.9733 55.3918 50.1647C54.3041 50.6191 53.1646 50.938 51.9991 51.1144C51.904 51.1285 51.8088 51.1427 51.7124 51.1541C51.4245 51.1928 51.1353 51.2223 50.8422 51.2428V55.1729H51.4373V63.7015C51.4373 64.6909 50.6328 65.4968 49.642 65.4968C48.6498 65.4968 47.8426 64.6897 47.8426 63.6976V55.1729H48.4389V51.2145C48.2436 51.1952 48.0496 51.1735 47.8566 51.1464C47.7782 51.1361 47.6998 51.1249 47.6216 51.1129C47.5072 51.0963 47.3941 51.0771 47.281 51.0577C46.3189 50.8881 45.3766 50.6207 44.4689 50.2596C43.8508 50.015 43.2504 49.7277 42.6722 49.3999C42.3337 49.2076 42.0028 49.0023 41.6801 48.7843C41.0632 48.366 40.4793 47.9012 39.9334 47.3937C37.0726 44.7385 35.2812 40.9472 35.2812 36.7459C35.2812 29.6439 40.4012 23.7165 47.1448 22.4609C47.7477 22.348 48.3573 22.2741 48.9697 22.24C49.2486 22.2219 49.5302 22.2143 49.8128 22.2143C50.8217 22.2143 51.8061 22.3171 52.7572 22.5137C53.367 22.6396 53.9681 22.8053 54.5564 23.0099C60.2474 24.9799 64.3458 30.3932 64.3458 36.7459ZM62.5453 36.7459C62.5453 29.7249 56.8338 24.0135 49.8129 24.0135C42.792 24.0135 37.0805 29.7249 37.0805 36.7459C37.0805 43.7668 42.792 49.4783 49.8129 49.4783C56.8338 49.4783 62.5453 43.7668 62.5453 36.7459ZM60.2705 37.1789C58.222 40.9073 54.2146 43.2233 49.8129 43.2233C45.4073 43.2233 41.4001 40.9073 39.3552 37.1789C39.2825 37.0463 39.2444 36.8973 39.2444 36.7459C39.2444 36.5945 39.2825 36.4456 39.3552 36.3128C41.4013 32.5871 45.4085 30.2724 49.8129 30.2724C54.2148 30.2724 58.2206 32.5871 60.2705 36.3128C60.3433 36.4456 60.3814 36.5945 60.3814 36.7459C60.3814 36.8973 60.3433 37.0463 60.2705 37.1789ZM54.4872 36.7459C54.4872 34.2089 52.4565 32.1372 49.9337 32.0729C49.8938 32.0716 49.8528 32.0716 49.8129 32.0716C49.773 32.0716 49.732 32.0716 49.6921 32.0729C47.168 32.1372 45.1361 34.2089 45.1361 36.7459C45.1361 39.2855 47.168 41.3584 49.6921 41.4227C49.732 41.4239 49.773 41.4239 49.8129 41.4239C49.8526 41.4239 49.8938 41.4239 49.9337 41.4227C52.4565 41.3584 54.4872 39.2855 54.4872 36.7459ZM49.8133 33.8937C48.2402 33.8937 46.9606 35.1733 46.9606 36.7461C46.9606 38.3191 48.2402 39.5987 49.8133 39.5987C51.3841 39.5987 52.6622 38.3191 52.6622 36.7461C52.6621 35.1733 51.3841 33.8937 49.8133 33.8937ZM58.6473 58.422V72H15.6562V58.422C15.6562 54.29 19.017 50.928 23.1489 50.928H29.886C30.3305 54.5432 33.4189 57.3513 37.1498 57.3513C40.4785 57.3513 43.2944 55.1203 44.1812 52.0742C44.79 52.2997 45.4118 52.4881 46.0434 52.6385V63.6976C46.0434 65.682 47.6577 67.2961 49.642 67.2961C51.6238 67.2961 53.2366 65.6833 53.2366 63.7016V52.7169C53.9141 52.5711 54.5817 52.3821 55.2352 52.1515C57.2966 53.5073 58.6473 55.8464 58.6473 58.422ZM29.5789 61.5488C29.5789 61.3501 29.5 61.1596 29.3594 61.0191C29.2189 60.8785 29.0284 60.7996 28.8296 60.7996H26.8569V58.8268C26.8566 58.6277 26.7776 58.4369 26.6368 58.2962C26.4961 58.1556 26.3053 58.0764 26.1064 58.0761H23.0772C22.6633 58.0761 22.328 58.4128 22.328 58.8268V60.7994H20.351C20.1524 60.7994 19.9618 60.8784 19.8213 61.0189C19.6808 61.1594 19.6018 61.35 19.6018 61.5486V64.5778C19.6018 64.7765 19.6808 64.9672 19.8213 65.1076C19.9618 65.2481 20.1524 65.327 20.351 65.327H22.3277V67.3012C22.3277 67.4998 22.4066 67.6904 22.5472 67.8309C22.6876 67.9714 22.8783 68.0504 23.0769 68.0504H26.1061C26.52 68.0504 26.8566 67.715 26.8566 67.3012V65.327H28.8294C29.0281 65.327 29.2186 65.2481 29.3592 65.1076C29.4997 64.9672 29.5786 64.7765 29.5786 64.5778L29.5789 61.5488Z" fill="white"/>
<path d="M64.3456 36.7466C64.3456 42.7843 60.6441 47.9739 55.3916 50.1652C54.3038 50.6196 53.1644 50.9387 51.9986 51.115C51.9037 51.1291 51.8085 51.1432 51.712 51.1548C51.4242 51.1934 51.135 51.223 50.842 51.2435V55.1735H51.437V63.702C51.437 64.6916 50.6324 65.4974 49.6416 65.4974C48.6496 65.4974 47.8424 64.6903 47.8424 63.6982V55.1735H48.4386V51.2151C48.2432 51.1959 48.0492 51.174 47.8564 51.147C47.7778 51.1367 47.6996 51.1256 47.6213 51.1136C47.5068 51.097 47.3938 51.0776 47.2808 51.0583C46.3186 50.8887 45.3764 50.6214 44.4686 50.2603C43.8505 50.0158 43.2501 49.7284 42.6718 49.4004C42.3333 49.2082 42.0024 49.0028 41.6798 48.785C41.0629 48.3667 40.479 47.9018 39.9332 47.3943C37.0722 44.7391 35.2808 40.9479 35.2808 36.7466C35.2808 29.6446 40.4009 23.7172 47.1445 22.4616C47.7473 22.3486 48.3569 22.2748 48.9694 22.2406C49.2484 22.2226 49.5298 22.2148 49.8124 22.2148C50.8214 22.2148 51.8058 22.3178 52.7568 22.5143C53.3668 22.6402 53.9678 22.8059 54.5561 23.0104C60.247 24.9806 64.3456 30.3939 64.3456 36.7466ZM62.5449 36.7466C62.5449 29.7255 56.8335 24.0142 49.8125 24.0142C42.7916 24.0142 37.0802 29.7255 37.0802 36.7466C37.0802 43.7675 42.7916 49.4788 49.8125 49.4788C56.8335 49.4788 62.5449 43.7675 62.5449 36.7466ZM60.2702 37.1796C58.2216 40.9079 54.2142 43.2239 49.8125 43.2239C45.4069 43.2239 41.3997 40.908 39.3549 37.1796C39.2821 37.0468 39.244 36.8979 39.244 36.7466C39.244 36.5951 39.2821 36.4462 39.3549 36.3134C41.401 32.5876 45.4082 30.273 49.8125 30.273C54.2144 30.273 58.2204 32.5876 60.2702 36.3134C60.3429 36.4462 60.381 36.5951 60.381 36.7466C60.381 36.8979 60.3429 37.0468 60.2702 37.1796ZM54.4868 36.7466C54.4868 34.2096 52.4562 32.1378 49.9334 32.0735C49.8936 32.0723 49.8525 32.0723 49.8125 32.0723C49.7728 32.0723 49.7317 32.0723 49.6918 32.0735C47.1677 32.1378 45.1358 34.2096 45.1358 36.7466C45.1358 39.2862 47.1677 41.3591 49.6918 41.4232C49.7317 41.4246 49.7728 41.4246 49.8125 41.4246C49.8524 41.4246 49.8934 41.4246 49.9334 41.4232C52.4562 41.3591 54.4868 39.2862 54.4868 36.7466ZM49.8129 33.8943C48.24 33.8943 46.9604 35.1739 46.9604 36.7468C46.9604 38.3198 48.24 39.5994 49.8129 39.5994C51.3837 39.5994 52.6618 38.3198 52.6618 36.7468C52.6617 35.1739 51.3837 33.8943 49.8129 33.8943ZM29.5785 61.5495C29.5785 61.3507 29.4996 61.1602 29.359 61.0196C29.2186 60.8792 29.028 60.8003 28.8293 60.8003H26.8566V58.8274C26.8564 58.6284 26.7772 58.4376 26.6365 58.297C26.4958 58.1562 26.305 58.0771 26.106 58.0768H23.0769C22.663 58.0768 22.3276 58.4135 22.3276 58.8274V60.8002H20.3508C20.1521 60.8002 19.9614 60.8791 19.821 61.0196C19.6805 61.16 19.6016 61.3507 19.6016 61.5494V64.5786C19.6016 64.7772 19.6805 64.9678 19.821 65.1083C19.9614 65.2488 20.1521 65.3278 20.3508 65.3278H22.3274V67.3018C22.3274 67.5006 22.4064 67.6911 22.5468 67.8316C22.6873 67.9722 22.8778 68.0511 23.0766 68.0511H26.1057C26.5197 68.0511 26.8564 67.7156 26.8564 67.3018V65.3278H28.829C29.0278 65.3278 29.2184 65.2488 29.3589 65.1083C29.4993 64.9678 29.5782 64.7772 29.5782 64.5786L29.5785 61.5495Z" fill="#51BA69"/>
</svg>
