<svg width="52" height="52" viewBox="0 0 52 52" fill="none" xmlns="http://www.w3.org/2000/svg">
<rect width="52" height="52" fill="#6FCD95"/>
<path d="M13.478 34.22C12.4367 34.22 11.4833 34.0367 10.618 33.67C9.75267 33.2887 9.02667 32.746 8.44 32.042L10.42 30.084C10.7133 30.524 11.1313 30.876 11.674 31.14C12.2167 31.404 12.8033 31.536 13.434 31.536C14.0207 31.536 14.5267 31.4333 14.952 31.228C15.3773 31.008 15.7073 30.7073 15.942 30.326C16.1913 29.93 16.316 29.4753 16.316 28.962C16.316 28.4193 16.1913 27.9573 15.942 27.576C15.7073 27.1947 15.3627 26.9013 14.908 26.696C14.4533 26.4907 13.9107 26.388 13.28 26.388C13.0013 26.388 12.7153 26.41 12.422 26.454C12.1287 26.4833 11.8793 26.5347 11.674 26.608L12.994 24.936C13.3607 24.8187 13.72 24.7233 14.072 24.65C14.4387 24.562 14.776 24.518 15.084 24.518C15.876 24.518 16.5873 24.7087 17.218 25.09C17.8633 25.4567 18.3693 25.9847 18.736 26.674C19.1173 27.3487 19.308 28.148 19.308 29.072C19.308 30.0987 19.066 31.0007 18.582 31.778C18.098 32.5407 17.416 33.142 16.536 33.582C15.6707 34.0073 14.6513 34.22 13.478 34.22ZM11.674 26.608V24.892L15.634 20.294L19.066 20.25L14.974 24.936L11.674 26.608ZM9.298 21.13V18.534H19.066V20.25L16.624 21.13H9.298ZM20.8877 35.034L26.6737 17.544H29.2697L23.4837 35.034H20.8877ZM30.6024 28.544L35.8824 18.534H39.1824L33.7704 28.544H30.6024ZM30.6024 30.304V28.544L31.7024 27.686H42.7904V30.304H30.6024ZM37.9064 34V24.144H40.8544V34H37.9064Z" fill="white"/>
</svg>
